<svg width="136" height="12" viewBox="0 0 136 12" fill="none" xmlns="http://www.w3.org/2000/svg">
<path d="M4.416 11.192C3.73333 11.192 3.05067 11.064 2.368 10.808C1.696 10.552 1.09333 10.1787 0.56 9.688L1.904 8.072C2.27733 8.392 2.69333 8.65333 3.152 8.856C3.61067 9.05867 4.05333 9.16 4.48 9.16C4.97067 9.16 5.33333 9.06933 5.568 8.888C5.81333 8.70667 5.936 8.46133 5.936 8.152C5.936 7.82133 5.79733 7.58133 5.52 7.432C5.25333 7.272 4.89067 7.096 4.432 6.904L3.072 6.328C2.72 6.17867 2.384 5.98133 2.064 5.736C1.744 5.48 1.48267 5.16533 1.28 4.792C1.07733 4.41867 0.976 3.98133 0.976 3.48C0.976 2.904 1.13067 2.38133 1.44 1.912C1.76 1.44267 2.19733 1.06933 2.752 0.792C3.31733 0.514666 3.96267 0.375999 4.688 0.375999C5.28533 0.375999 5.88267 0.493333 6.48 0.728C7.07733 0.962667 7.6 1.304 8.048 1.752L6.848 3.24C6.50667 2.97333 6.16533 2.77067 5.824 2.632C5.48267 2.48267 5.104 2.408 4.688 2.408C4.28267 2.408 3.95733 2.49333 3.712 2.664C3.47733 2.824 3.36 3.05333 3.36 3.352C3.36 3.672 3.50933 3.912 3.808 4.072C4.11733 4.232 4.496 4.40267 4.944 4.584L6.288 5.128C6.91733 5.384 7.41867 5.736 7.792 6.184C8.16533 6.632 8.352 7.224 8.352 7.96C8.352 8.536 8.19733 9.06933 7.888 9.56C7.57867 10.0507 7.13067 10.4453 6.544 10.744C5.95733 11.0427 5.248 11.192 4.416 11.192ZM13.3226 11V0.568H15.6746V11H13.3226ZM21.3351 11V0.568H23.6871V9.016H27.8151V11H21.3351ZM32.8164 11V0.568H39.3444V2.552H35.1684V4.648H38.7204V6.616H35.1684V9.016H39.5044V11H32.8164ZM44.782 11V0.568H47.198L49.918 5.752L50.942 8.056H51.006C50.9633 7.50133 50.9047 6.88267 50.83 6.2C50.7553 5.51733 50.718 4.86667 50.718 4.248V0.568H52.958V11H50.542L47.822 5.8L46.798 3.528H46.734C46.7873 4.104 46.846 4.72267 46.91 5.384C46.9847 6.04533 47.022 6.68533 47.022 7.304V11H44.782ZM60.6546 11V2.552H57.7906V0.568H65.8866V2.552H63.0226V11H60.6546ZM83.5195 11V0.568H86.0955L87.7755 5.208C87.8822 5.50667 87.9835 5.82133 88.0795 6.152C88.1755 6.48267 88.2768 6.808 88.3835 7.128H88.4475C88.5542 6.808 88.6502 6.48267 88.7355 6.152C88.8315 5.82133 88.9328 5.50667 89.0395 5.208L90.6875 0.568H93.2475V11H91.1035V7.176C91.1035 6.83467 91.1195 6.456 91.1515 6.04C91.1942 5.61333 91.2368 5.18667 91.2795 4.76C91.3328 4.33333 91.3755 3.95467 91.4075 3.624H91.3435L90.4955 6.104L89.0075 10.088H87.7115L86.2235 6.104L85.3915 3.624H85.3275C85.3702 3.95467 85.4128 4.33333 85.4555 4.76C85.4982 5.18667 85.5355 5.61333 85.5675 6.04C85.6102 6.456 85.6315 6.83467 85.6315 7.176V11H83.5195ZM103.147 11.192C102.208 11.192 101.382 10.9733 100.667 10.536C99.963 10.0987 99.4083 9.47467 99.003 8.664C98.6083 7.84267 98.411 6.86667 98.411 5.736C98.411 4.59467 98.6083 3.62933 99.003 2.84C99.4083 2.04 99.963 1.432 100.667 1.016C101.382 0.589333 102.208 0.375999 103.147 0.375999C104.086 0.375999 104.907 0.589333 105.611 1.016C106.326 1.432 106.88 2.04 107.275 2.84C107.68 3.64 107.883 4.60533 107.883 5.736C107.883 6.86667 107.68 7.84267 107.275 8.664C106.88 9.47467 106.326 10.0987 105.611 10.536C104.907 10.9733 104.086 11.192 103.147 11.192ZM103.147 9.16C103.862 9.16 104.427 8.85067 104.843 8.232C105.259 7.61333 105.467 6.78133 105.467 5.736C105.467 4.69067 105.259 3.87467 104.843 3.288C104.427 2.70133 103.862 2.408 103.147 2.408C102.432 2.408 101.867 2.70133 101.451 3.288C101.035 3.87467 100.827 4.69067 100.827 5.736C100.827 6.78133 101.035 7.61333 101.451 8.232C101.867 8.85067 102.432 9.16 103.147 9.16ZM117.285 11.192C116.346 11.192 115.519 10.9733 114.805 10.536C114.101 10.0987 113.546 9.47467 113.141 8.664C112.746 7.84267 112.549 6.86667 112.549 5.736C112.549 4.59467 112.746 3.62933 113.141 2.84C113.546 2.04 114.101 1.432 114.805 1.016C115.519 0.589333 116.346 0.375999 117.285 0.375999C118.223 0.375999 119.045 0.589333 119.749 1.016C120.463 1.432 121.018 2.04 121.413 2.84C121.818 3.64 122.021 4.60533 122.021 5.736C122.021 6.86667 121.818 7.84267 121.413 8.664C121.018 9.47467 120.463 10.0987 119.749 10.536C119.045 10.9733 118.223 11.192 117.285 11.192ZM117.285 9.16C117.999 9.16 118.565 8.85067 118.981 8.232C119.397 7.61333 119.605 6.78133 119.605 5.736C119.605 4.69067 119.397 3.87467 118.981 3.288C118.565 2.70133 117.999 2.408 117.285 2.408C116.57 2.408 116.005 2.70133 115.589 3.288C115.173 3.87467 114.965 4.69067 114.965 5.736C114.965 6.78133 115.173 7.61333 115.589 8.232C116.005 8.85067 116.57 9.16 117.285 9.16ZM127.182 11V0.568H129.598L132.318 5.752L133.342 8.056H133.406C133.363 7.50133 133.305 6.88267 133.23 6.2C133.155 5.51733 133.118 4.86667 133.118 4.248V0.568H135.358V11H132.942L130.222 5.8L129.198 3.528H129.134C129.187 4.104 129.246 4.72267 129.31 5.384C129.385 6.04533 129.422 6.68533 129.422 7.304V11H127.182Z" fill="#4A503D"/>
</svg>
