<svg width="65" height="55" viewBox="0 0 65 55" fill="none" xmlns="http://www.w3.org/2000/svg">
<path d="M0.363938 54V43.536H2.45994L4.31594 48.656C4.43327 48.9867 4.54527 49.328 4.65194 49.68C4.76927 50.0213 4.88127 50.3627 4.98794 50.704H5.05194C5.16927 50.3627 5.28127 50.0213 5.38794 49.68C5.49461 49.328 5.60127 48.9867 5.70794 48.656L7.51594 43.536H9.62794V54H7.91594V49.216C7.91594 48.8853 7.92661 48.528 7.94794 48.144C7.97994 47.7493 8.01194 47.3547 8.04394 46.96C8.08661 46.5653 8.12394 46.208 8.15594 45.888H8.09194L7.24394 48.32L5.53194 53.024H4.42794L2.69994 48.32L1.86794 45.888H1.80394C1.83594 46.208 1.86794 46.5653 1.89994 46.96C1.94261 47.3547 1.97461 47.7493 1.99594 48.144C2.02794 48.528 2.04394 48.8853 2.04394 49.216V54H0.363938ZM16.2858 54.192C15.5605 54.192 14.9045 54.032 14.3178 53.712C13.7311 53.3813 13.2671 52.912 12.9258 52.304C12.5845 51.6853 12.4138 50.944 12.4138 50.08C12.4138 49.2267 12.5845 48.4907 12.9258 47.872C13.2778 47.2533 13.7311 46.7787 14.2858 46.448C14.8405 46.1173 15.4218 45.952 16.0298 45.952C16.7445 45.952 17.3418 46.112 17.8218 46.432C18.3018 46.7413 18.6645 47.1787 18.9098 47.744C19.1551 48.2987 19.2778 48.944 19.2778 49.68C19.2778 50.064 19.2511 50.3627 19.1978 50.576H14.2058C14.2911 51.2693 14.5418 51.808 14.9578 52.192C15.3738 52.576 15.8965 52.768 16.5258 52.768C16.8671 52.768 17.1818 52.72 17.4698 52.624C17.7685 52.5173 18.0618 52.3733 18.3498 52.192L18.9738 53.344C18.6005 53.5893 18.1845 53.792 17.7258 53.952C17.2671 54.112 16.7871 54.192 16.2858 54.192ZM14.1898 49.328H17.6778C17.6778 48.72 17.5445 48.2453 17.2778 47.904C17.0111 47.552 16.6111 47.376 16.0778 47.376C15.6191 47.376 15.2085 47.5467 14.8458 47.888C14.4938 48.2187 14.2751 48.6987 14.1898 49.328ZM24.5872 54.192C23.6059 54.192 22.8219 53.8293 22.2352 53.104C21.6485 52.3787 21.3552 51.3707 21.3552 50.08C21.3552 49.2267 21.5099 48.4907 21.8192 47.872C22.1392 47.2533 22.5552 46.7787 23.0672 46.448C23.5792 46.1173 24.1179 45.952 24.6832 45.952C25.1312 45.952 25.5099 46.032 25.8192 46.192C26.1392 46.3413 26.4485 46.5493 26.7472 46.816L26.6832 45.552V42.704H28.5232V54H27.0032L26.8752 53.152H26.8112C26.5232 53.44 26.1872 53.6853 25.8032 53.888C25.4192 54.0907 25.0139 54.192 24.5872 54.192ZM25.0352 52.672C25.6219 52.672 26.1712 52.3787 26.6832 51.792V48.128C26.4165 47.8827 26.1499 47.712 25.8832 47.616C25.6165 47.52 25.3499 47.472 25.0832 47.472C24.5819 47.472 24.1499 47.7013 23.7872 48.16C23.4352 48.608 23.2592 49.2427 23.2592 50.064C23.2592 50.9067 23.4139 51.552 23.7232 52C24.0325 52.448 24.4699 52.672 25.0352 52.672ZM31.6664 54V46.144H33.5064V54H31.6664ZM32.5944 44.768C32.2638 44.768 31.9971 44.672 31.7944 44.48C31.5918 44.288 31.4904 44.032 31.4904 43.712C31.4904 43.4027 31.5918 43.152 31.7944 42.96C31.9971 42.768 32.2638 42.672 32.5944 42.672C32.9251 42.672 33.1918 42.768 33.3944 42.96C33.5971 43.152 33.6984 43.4027 33.6984 43.712C33.6984 44.032 33.5971 44.288 33.3944 44.48C33.1918 44.672 32.9251 44.768 32.5944 44.768ZM39.4219 54.192C38.5153 54.192 37.8699 53.9307 37.4859 53.408C37.1126 52.8747 36.9259 52.1867 36.9259 51.344V47.6H35.8059V46.224L37.0219 46.144L37.2459 44H38.7819V46.144H40.7819V47.6H38.7819V51.344C38.7819 52.2613 39.1499 52.72 39.8859 52.72C40.0246 52.72 40.1686 52.704 40.3179 52.672C40.4673 52.6293 40.5953 52.5867 40.7019 52.544L41.0219 53.904C40.8086 53.9787 40.5633 54.0427 40.2859 54.096C40.0193 54.16 39.7313 54.192 39.4219 54.192ZM44.7954 54.192C44.1128 54.192 43.5528 53.9787 43.1154 53.552C42.6888 53.1253 42.4754 52.5707 42.4754 51.888C42.4754 51.0453 42.8434 50.3947 43.5794 49.936C44.3154 49.4667 45.4888 49.1467 47.0994 48.976C47.0888 48.56 46.9768 48.2027 46.7634 47.904C46.5608 47.5947 46.1928 47.44 45.6594 47.44C45.2754 47.44 44.8968 47.5147 44.5234 47.664C44.1608 47.8133 43.8034 47.9947 43.4514 48.208L42.7794 46.976C43.2168 46.6987 43.7074 46.4587 44.2514 46.256C44.8061 46.0533 45.3928 45.952 46.0114 45.952C46.9928 45.952 47.7234 46.2453 48.2034 46.832C48.6941 47.408 48.9394 48.2453 48.9394 49.344V54H47.4194L47.2914 53.136H47.2274C46.8754 53.4347 46.4968 53.6853 46.0914 53.888C45.6968 54.0907 45.2648 54.192 44.7954 54.192ZM45.3874 52.752C45.7074 52.752 45.9954 52.6773 46.2514 52.528C46.5181 52.368 46.8008 52.1547 47.0994 51.888V50.128C46.0328 50.2667 45.2914 50.4747 44.8754 50.752C44.4594 51.0187 44.2514 51.3493 44.2514 51.744C44.2514 52.096 44.3581 52.352 44.5714 52.512C44.7848 52.672 45.0568 52.752 45.3874 52.752ZM54.4594 54.192C53.5528 54.192 52.9074 53.9307 52.5234 53.408C52.1501 52.8747 51.9634 52.1867 51.9634 51.344V47.6H50.8434V46.224L52.0594 46.144L52.2834 44H53.8194V46.144H55.8194V47.6H53.8194V51.344C53.8194 52.2613 54.1874 52.72 54.9234 52.72C55.0621 52.72 55.2061 52.704 55.3554 52.672C55.5048 52.6293 55.6328 52.5867 55.7394 52.544L56.0594 53.904C55.8461 53.9787 55.6008 54.0427 55.3234 54.096C55.0568 54.16 54.7688 54.192 54.4594 54.192ZM61.3827 54.192C60.6574 54.192 60.0014 54.032 59.4147 53.712C58.828 53.3813 58.364 52.912 58.0227 52.304C57.6814 51.6853 57.5107 50.944 57.5107 50.08C57.5107 49.2267 57.6814 48.4907 58.0227 47.872C58.3747 47.2533 58.828 46.7787 59.3827 46.448C59.9374 46.1173 60.5187 45.952 61.1267 45.952C61.8414 45.952 62.4387 46.112 62.9187 46.432C63.3987 46.7413 63.7614 47.1787 64.0067 47.744C64.252 48.2987 64.3747 48.944 64.3747 49.68C64.3747 50.064 64.348 50.3627 64.2947 50.576H59.3027C59.388 51.2693 59.6387 51.808 60.0547 52.192C60.4707 52.576 60.9934 52.768 61.6227 52.768C61.964 52.768 62.2787 52.72 62.5667 52.624C62.8654 52.5173 63.1587 52.3733 63.4467 52.192L64.0707 53.344C63.6974 53.5893 63.2814 53.792 62.8227 53.952C62.364 54.112 61.884 54.192 61.3827 54.192ZM59.2867 49.328H62.7747C62.7747 48.72 62.6414 48.2453 62.3747 47.904C62.108 47.552 61.708 47.376 61.1747 47.376C60.716 47.376 60.3054 47.5467 59.9427 47.888C59.5907 48.2187 59.372 48.6987 59.2867 49.328Z" fill="#A1A4B2"/>
<path d="M31.2173 22.0002C30.6635 22.0002 25.833 21.9366 23.8536 19.6031C23.1454 18.7678 22.873 17.7236 23.0546 16.5886L23.0728 16.4887C23.0909 16.407 23.1 16.3344 23.1182 16.2618L23.4541 14.9361C23.7447 13.9283 24.0443 13.0748 24.3803 12.2757C24.7525 11.4041 25.2338 10.5688 25.8966 9.6517C26.7501 8.46225 27.7761 7.11845 29.1562 6.29219C29.6193 6.0198 30.3457 5.70201 31.1992 5.75649C32.0617 5.70201 32.779 6.01072 33.2421 6.29219C34.5677 7.08213 35.5938 8.37145 36.5108 9.6517C37.1646 10.5688 37.6458 11.4041 38.0271 12.2757C38.4448 13.2382 38.7989 14.3005 39.1076 15.5081L39.2983 16.2618C39.5798 17.4784 39.3618 18.5952 38.6445 19.4941C36.7287 21.9366 31.7803 22.0002 31.2173 22.0002ZM25.1157 15.7714L24.8615 16.8156C24.7525 17.5057 24.8706 18.0051 25.2428 18.4318C26.4686 19.8755 29.9734 20.1933 31.2173 20.1933H31.2264C32.4976 20.1933 36.0659 19.8664 37.2463 18.3773C37.6185 17.9143 37.7093 17.3695 37.5459 16.6794L37.3734 15.9712C37.0828 14.8544 36.756 13.8829 36.3837 13.0021C36.0568 12.2485 35.6392 11.5221 35.058 10.7049C34.3135 9.66078 33.4328 8.49857 32.3432 7.85391C31.98 7.64507 31.6168 7.5452 31.299 7.57244L31.2173 7.58152L31.1265 7.57244C30.8178 7.5452 30.4455 7.64507 30.1005 7.85391C29.02 8.49857 28.1302 9.66078 27.3857 10.7049C26.8046 11.5221 26.3869 12.2485 26.06 13.0021C25.7513 13.7194 25.4789 14.5003 25.2247 15.3901L25.1157 15.7714Z" fill="#A0A3B1"/>
<path d="M37.5096 6.98233C35.5847 6.98233 34.0229 5.42061 34.0229 3.4957C34.0229 1.5708 35.5847 0 37.5096 0C39.4345 0 40.9962 1.56172 40.9962 3.48662C40.9962 5.41153 39.4345 6.98233 37.5096 6.98233ZM37.5096 1.81595C36.5834 1.81595 35.8389 2.56957 35.8389 3.48662C35.8389 4.40368 36.5925 5.1573 37.5096 5.1573C38.4266 5.1573 39.1802 4.40368 39.1802 3.48662C39.1802 2.56957 38.4266 1.81595 37.5096 1.81595Z" fill="#A0A3B1"/>
</svg>
