<svg width="49" height="57" viewBox="0 0 49 57" fill="none" xmlns="http://www.w3.org/2000/svg">
<path d="M0.14675 56V45.536H3.44275C4.22142 45.536 4.91475 45.6373 5.52275 45.84C6.13075 46.0427 6.61075 46.3787 6.96275 46.848C7.31475 47.3173 7.49075 47.9573 7.49075 48.768C7.49075 49.536 7.31475 50.1707 6.96275 50.672C6.61075 51.1733 6.13608 51.5467 5.53875 51.792C4.94142 52.0373 4.26408 52.16 3.50675 52.16H2.00275V56H0.14675ZM2.00275 50.672H3.36275C4.89875 50.672 5.66675 50.0373 5.66675 48.768C5.66675 48.1067 5.46408 47.6533 5.05875 47.408C4.66408 47.152 4.07742 47.024 3.29875 47.024H2.00275V50.672ZM10.0993 56V48.144H11.6193L11.7473 49.536H11.8113C12.0886 49.024 12.4246 48.6347 12.8193 48.368C13.2139 48.0907 13.6193 47.952 14.0353 47.952C14.4086 47.952 14.7073 48.0053 14.9313 48.112L14.6113 49.712C14.4726 49.6693 14.3446 49.6373 14.2273 49.616C14.1099 49.5947 13.9659 49.584 13.7953 49.584C13.4859 49.584 13.1606 49.7067 12.8193 49.952C12.4779 50.1867 12.1846 50.6027 11.9393 51.2V56H10.0993ZM19.9278 56.192C19.2771 56.192 18.6691 56.032 18.1038 55.712C17.5384 55.3813 17.0798 54.912 16.7278 54.304C16.3758 53.6853 16.1998 52.944 16.1998 52.08C16.1998 51.2053 16.3758 50.464 16.7278 49.856C17.0798 49.2373 17.5384 48.768 18.1038 48.448C18.6691 48.1173 19.2771 47.952 19.9278 47.952C20.5891 47.952 21.2024 48.1173 21.7678 48.448C22.3331 48.768 22.7918 49.2373 23.1438 49.856C23.4958 50.464 23.6718 51.2053 23.6718 52.08C23.6718 52.944 23.4958 53.6853 23.1438 54.304C22.7918 54.912 22.3331 55.3813 21.7678 55.712C21.2024 56.032 20.5891 56.192 19.9278 56.192ZM19.9278 54.688C20.5038 54.688 20.9571 54.448 21.2878 53.968C21.6184 53.488 21.7838 52.8587 21.7838 52.08C21.7838 51.2907 21.6184 50.656 21.2878 50.176C20.9571 49.696 20.5038 49.456 19.9278 49.456C19.3518 49.456 18.8984 49.696 18.5678 50.176C18.2478 50.656 18.0878 51.2907 18.0878 52.08C18.0878 52.8587 18.2478 53.488 18.5678 53.968C18.8984 54.448 19.3518 54.688 19.9278 54.688ZM26.5505 56V49.6H25.4945V48.224L26.5505 48.144V47.328C26.5505 46.5067 26.7532 45.8347 27.1585 45.312C27.5638 44.7787 28.2305 44.512 29.1585 44.512C29.4358 44.512 29.7025 44.5387 29.9585 44.592C30.2145 44.6453 30.4278 44.7093 30.5985 44.784L30.2465 46.16C29.9585 46.032 29.6705 45.968 29.3825 45.968C28.7212 45.968 28.3905 46.4107 28.3905 47.296V48.144H29.9265V49.6H28.3905V56H26.5505ZM32.1086 56V48.144H33.9486V56H32.1086ZM33.0366 46.768C32.706 46.768 32.4393 46.672 32.2366 46.48C32.034 46.288 31.9326 46.032 31.9326 45.712C31.9326 45.4027 32.034 45.152 32.2366 44.96C32.4393 44.768 32.706 44.672 33.0366 44.672C33.3673 44.672 33.634 44.768 33.8366 44.96C34.0393 45.152 34.1406 45.4027 34.1406 45.712C34.1406 46.032 34.0393 46.288 33.8366 46.48C33.634 46.672 33.3673 46.768 33.0366 46.768ZM38.8881 56.192C38.2375 56.192 37.7735 55.9947 37.4961 55.6C37.2295 55.2053 37.0961 54.6667 37.0961 53.984V44.704H38.9361V54.08C38.9361 54.304 38.9788 54.464 39.0641 54.56C39.1495 54.6453 39.2401 54.688 39.3361 54.688C39.3788 54.688 39.4161 54.688 39.4481 54.688C39.4908 54.6773 39.5495 54.6667 39.6241 54.656L39.8641 56.032C39.7575 56.0747 39.6188 56.112 39.4481 56.144C39.2881 56.176 39.1015 56.192 38.8881 56.192ZM45.5999 56.192C44.8745 56.192 44.2185 56.032 43.6319 55.712C43.0452 55.3813 42.5812 54.912 42.2399 54.304C41.8985 53.6853 41.7279 52.944 41.7279 52.08C41.7279 51.2267 41.8985 50.4907 42.2399 49.872C42.5919 49.2533 43.0452 48.7787 43.5999 48.448C44.1545 48.1173 44.7359 47.952 45.3439 47.952C46.0585 47.952 46.6559 48.112 47.1359 48.432C47.6159 48.7413 47.9785 49.1787 48.2239 49.744C48.4692 50.2987 48.5919 50.944 48.5919 51.68C48.5919 52.064 48.5652 52.3627 48.5119 52.576H43.5199C43.6052 53.2693 43.8559 53.808 44.2719 54.192C44.6879 54.576 45.2105 54.768 45.8399 54.768C46.1812 54.768 46.4959 54.72 46.7839 54.624C47.0825 54.5173 47.3759 54.3733 47.6639 54.192L48.2879 55.344C47.9145 55.5893 47.4985 55.792 47.0399 55.952C46.5812 56.112 46.1012 56.192 45.5999 56.192ZM43.5039 51.328H46.9919C46.9919 50.72 46.8585 50.2453 46.5919 49.904C46.3252 49.552 45.9252 49.376 45.3919 49.376C44.9332 49.376 44.5225 49.5467 44.1599 49.888C43.8079 50.2187 43.5892 50.6987 43.5039 51.328Z" fill="#A1A4B2"/>
<path d="M18.3233 6.31132C18.3233 9.29253 20.7479 11.7154 23.731 11.7154C26.7142 11.7154 29.1387 9.28514 29.1387 6.30412C29.1387 3.32291 26.7141 0.9 23.731 0.9C20.7478 0.9 18.3233 3.323 18.3233 6.31132ZM19.9656 6.30412C19.9656 4.23332 21.6517 2.54134 23.731 2.54134C25.8103 2.54134 27.4964 4.23332 27.4964 6.30412C27.4964 8.37479 25.8032 10.0669 23.731 10.0669C21.6587 10.0669 19.9656 8.37479 19.9656 6.30412Z" fill="#A0A3B1" stroke="#A0A3B1" stroke-width="0.2"/>
<path d="M28.7543 24.0001H18.7073C16.1078 24.0001 14 21.6235 14 18.6924C14 15.7612 16.1165 13.3846 18.7073 13.3846H28.7543C31.3539 13.3846 33.4616 15.7711 33.4616 18.6924C33.4616 21.6136 31.3539 24.0001 28.7543 24.0001ZM18.7073 15.3651C17.0826 15.3651 15.7565 16.8604 15.7565 18.6924C15.7565 20.5243 17.0826 22.0196 18.7073 22.0196H28.7543C30.379 22.0196 31.7052 20.5243 31.7052 18.6924C31.7052 16.8604 30.379 15.3651 28.7543 15.3651H18.7073Z" fill="#A0A3B1"/>
</svg>
