<svg width="49" height="67" viewBox="0 0 49 67" fill="none" xmlns="http://www.w3.org/2000/svg">
<path d="M0.14675 66V55.536H3.44275C4.22142 55.536 4.91475 55.6373 5.52275 55.84C6.13075 56.0427 6.61075 56.3787 6.96275 56.848C7.31475 57.3173 7.49075 57.9573 7.49075 58.768C7.49075 59.536 7.31475 60.1707 6.96275 60.672C6.61075 61.1733 6.13608 61.5467 5.53875 61.792C4.94142 62.0373 4.26408 62.16 3.50675 62.16H2.00275V66H0.14675ZM2.00275 60.672H3.36275C4.89875 60.672 5.66675 60.0373 5.66675 58.768C5.66675 58.1067 5.46408 57.6533 5.05875 57.408C4.66408 57.152 4.07742 57.024 3.29875 57.024H2.00275V60.672ZM10.0993 66V58.144H11.6193L11.7473 59.536H11.8113C12.0886 59.024 12.4246 58.6347 12.8193 58.368C13.2139 58.0907 13.6193 57.952 14.0353 57.952C14.4086 57.952 14.7073 58.0053 14.9313 58.112L14.6113 59.712C14.4726 59.6693 14.3446 59.6373 14.2273 59.616C14.1099 59.5947 13.9659 59.584 13.7953 59.584C13.4859 59.584 13.1606 59.7067 12.8193 59.952C12.4779 60.1867 12.1846 60.6027 11.9393 61.2V66H10.0993ZM19.9278 66.192C19.2771 66.192 18.6691 66.032 18.1038 65.712C17.5384 65.3813 17.0798 64.912 16.7278 64.304C16.3758 63.6853 16.1998 62.944 16.1998 62.08C16.1998 61.2053 16.3758 60.464 16.7278 59.856C17.0798 59.2373 17.5384 58.768 18.1038 58.448C18.6691 58.1173 19.2771 57.952 19.9278 57.952C20.5891 57.952 21.2024 58.1173 21.7678 58.448C22.3331 58.768 22.7918 59.2373 23.1438 59.856C23.4958 60.464 23.6718 61.2053 23.6718 62.08C23.6718 62.944 23.4958 63.6853 23.1438 64.304C22.7918 64.912 22.3331 65.3813 21.7678 65.712C21.2024 66.032 20.5891 66.192 19.9278 66.192ZM19.9278 64.688C20.5038 64.688 20.9571 64.448 21.2878 63.968C21.6184 63.488 21.7838 62.8587 21.7838 62.08C21.7838 61.2907 21.6184 60.656 21.2878 60.176C20.9571 59.696 20.5038 59.456 19.9278 59.456C19.3518 59.456 18.8984 59.696 18.5678 60.176C18.2478 60.656 18.0878 61.2907 18.0878 62.08C18.0878 62.8587 18.2478 63.488 18.5678 63.968C18.8984 64.448 19.3518 64.688 19.9278 64.688ZM26.5505 66V59.6H25.4945V58.224L26.5505 58.144V57.328C26.5505 56.5067 26.7532 55.8347 27.1585 55.312C27.5638 54.7787 28.2305 54.512 29.1585 54.512C29.4358 54.512 29.7025 54.5387 29.9585 54.592C30.2145 54.6453 30.4278 54.7093 30.5985 54.784L30.2465 56.16C29.9585 56.032 29.6705 55.968 29.3825 55.968C28.7212 55.968 28.3905 56.4107 28.3905 57.296V58.144H29.9265V59.6H28.3905V66H26.5505ZM32.1086 66V58.144H33.9486V66H32.1086ZM33.0366 56.768C32.706 56.768 32.4393 56.672 32.2366 56.48C32.034 56.288 31.9326 56.032 31.9326 55.712C31.9326 55.4027 32.034 55.152 32.2366 54.96C32.4393 54.768 32.706 54.672 33.0366 54.672C33.3673 54.672 33.634 54.768 33.8366 54.96C34.0393 55.152 34.1406 55.4027 34.1406 55.712C34.1406 56.032 34.0393 56.288 33.8366 56.48C33.634 56.672 33.3673 56.768 33.0366 56.768ZM38.8881 66.192C38.2375 66.192 37.7735 65.9947 37.4961 65.6C37.2295 65.2053 37.0961 64.6667 37.0961 63.984V54.704H38.9361V64.08C38.9361 64.304 38.9788 64.464 39.0641 64.56C39.1495 64.6453 39.2401 64.688 39.3361 64.688C39.3788 64.688 39.4161 64.688 39.4481 64.688C39.4908 64.6773 39.5495 64.6667 39.6241 64.656L39.8641 66.032C39.7575 66.0747 39.6188 66.112 39.4481 66.144C39.2881 66.176 39.1015 66.192 38.8881 66.192ZM45.5999 66.192C44.8745 66.192 44.2185 66.032 43.6319 65.712C43.0452 65.3813 42.5812 64.912 42.2399 64.304C41.8985 63.6853 41.7279 62.944 41.7279 62.08C41.7279 61.2267 41.8985 60.4907 42.2399 59.872C42.5919 59.2533 43.0452 58.7787 43.5999 58.448C44.1545 58.1173 44.7359 57.952 45.3439 57.952C46.0585 57.952 46.6559 58.112 47.1359 58.432C47.6159 58.7413 47.9785 59.1787 48.2239 59.744C48.4692 60.2987 48.5919 60.944 48.5919 61.68C48.5919 62.064 48.5652 62.3627 48.5119 62.576H43.5199C43.6052 63.2693 43.8559 63.808 44.2719 64.192C44.6879 64.576 45.2105 64.768 45.8399 64.768C46.1812 64.768 46.4959 64.72 46.7839 64.624C47.0825 64.5173 47.3759 64.3733 47.6639 64.192L48.2879 65.344C47.9145 65.5893 47.4985 65.792 47.0399 65.952C46.5812 66.112 46.1012 66.192 45.5999 66.192ZM43.5039 61.328H46.9919C46.9919 60.72 46.8585 60.2453 46.5919 59.904C46.3252 59.552 45.9252 59.376 45.3919 59.376C44.9332 59.376 44.5225 59.5467 44.1599 59.888C43.8079 60.2187 43.5892 60.6987 43.5039 61.328Z" fill="#E28F83"/>
<rect x="1" width="46" height="46" rx="18" fill="#E28F83"/>
<path d="M18.3233 16.3113C18.3233 19.2925 20.7479 21.7154 23.731 21.7154C26.7142 21.7154 29.1387 19.2851 29.1387 16.3041C29.1387 13.3229 26.7141 10.9 23.731 10.9C20.7478 10.9 18.3233 13.323 18.3233 16.3113ZM19.9656 16.3041C19.9656 14.2333 21.6517 12.5413 23.731 12.5413C25.8103 12.5413 27.4964 14.2333 27.4964 16.3041C27.4964 18.3748 25.8032 20.0669 23.731 20.0669C21.6587 20.0669 19.9656 18.3748 19.9656 16.3041Z" fill="#FAF2DA" stroke="#FAF2DA" stroke-width="0.2"/>
<path d="M28.7543 34.0001H18.7073C16.1078 34.0001 14 31.6235 14 28.6924C14 25.7612 16.1165 23.3846 18.7073 23.3846H28.7543C31.3539 23.3846 33.4616 25.7711 33.4616 28.6924C33.4616 31.6136 31.3539 34.0001 28.7543 34.0001ZM18.7073 25.3651C17.0826 25.3651 15.7565 26.8604 15.7565 28.6924C15.7565 30.5243 17.0826 32.0196 18.7073 32.0196H28.7543C30.379 32.0196 31.7052 30.5243 31.7052 28.6924C31.7052 26.8604 30.379 25.3651 28.7543 25.3651H18.7073Z" fill="#FAF2DA"/>
</svg>
