<svg width="136" height="12" viewBox="0 0 136 12" fill="none" xmlns="http://www.w3.org/2000/svg">
<path d="M4.416 11.192C3.73333 11.192 3.05067 11.0693 2.368 10.824C1.696 10.568 1.09333 10.1893 0.56 9.688L1.904 8.072C2.27733 8.392 2.688 8.65333 3.136 8.856C3.59467 9.05867 4.04267 9.16 4.48 9.16C4.97067 9.16 5.33333 9.06933 5.568 8.888C5.81333 8.70667 5.936 8.46133 5.936 8.152C5.936 7.992 5.89867 7.85333 5.824 7.736C5.76 7.61867 5.65867 7.51733 5.52 7.432C5.392 7.336 5.232 7.25067 5.04 7.176C4.85867 7.09067 4.656 7 4.432 6.904L3.072 6.328C2.80533 6.22133 2.544 6.08267 2.288 5.912C2.04267 5.74133 1.81867 5.544 1.616 5.32C1.424 5.08533 1.26933 4.81867 1.152 4.52C1.03467 4.21067 0.976 3.864 0.976 3.48C0.976 3.05333 1.06667 2.65333 1.248 2.28C1.42933 1.896 1.68533 1.56533 2.016 1.288C2.34667 1 2.736 0.776 3.184 0.615999C3.64267 0.455999 4.144 0.375999 4.688 0.375999C5.296 0.375999 5.89333 0.493333 6.48 0.728C7.07733 0.962667 7.6 1.304 8.048 1.752L6.848 3.24C6.50667 2.97333 6.16533 2.77067 5.824 2.632C5.48267 2.48267 5.104 2.408 4.688 2.408C4.28267 2.408 3.95733 2.49333 3.712 2.664C3.47733 2.824 3.36 3.05333 3.36 3.352C3.36 3.512 3.39733 3.65067 3.472 3.768C3.55733 3.87467 3.66933 3.976 3.808 4.072C3.95733 4.15733 4.128 4.24267 4.32 4.328C4.512 4.40267 4.72 4.488 4.944 4.584L6.288 5.128C6.928 5.384 7.42933 5.736 7.792 6.184C8.16533 6.632 8.352 7.224 8.352 7.96C8.352 8.39733 8.26133 8.81333 8.08 9.208C7.90933 9.592 7.65333 9.93333 7.312 10.232C6.98133 10.52 6.57067 10.7547 6.08 10.936C5.58933 11.1067 5.03467 11.192 4.416 11.192ZM13.3226 11V0.568H15.6746V11H13.3226ZM21.3351 11V0.568H23.6871V9.016H27.8151V11H21.3351ZM32.8164 11V0.568H39.3444V2.552H35.1684V4.648H38.7204V6.616H35.1684V9.016H39.5044V11H32.8164ZM44.782 11V0.568H47.198L49.918 5.752L50.942 8.056H51.006C50.9527 7.50133 50.8887 6.88267 50.814 6.2C50.75 5.51733 50.718 4.86667 50.718 4.248V0.568H52.958V11H50.542L47.822 5.8L46.798 3.528H46.734C46.7873 4.104 46.846 4.72267 46.91 5.384C46.9847 6.04533 47.022 6.68533 47.022 7.304V11H44.782ZM60.6546 11V2.552H57.7906V0.568H65.8866V2.552H63.0226V11H60.6546ZM83.5195 11V0.568H86.0955L87.7755 5.208C87.8822 5.51733 87.9835 5.83733 88.0795 6.168C88.1755 6.488 88.2768 6.808 88.3835 7.128H88.4475C88.5542 6.808 88.6502 6.488 88.7355 6.168C88.8315 5.83733 88.9328 5.51733 89.0395 5.208L90.6875 0.568H93.2475V11H91.1035V7.176C91.1035 6.92 91.1142 6.63733 91.1355 6.328C91.1568 6.01867 91.1835 5.70933 91.2155 5.4C91.2475 5.08 91.2795 4.77067 91.3115 4.472C91.3435 4.16267 91.3755 3.88 91.4075 3.624H91.3435L90.4955 6.104L89.0075 10.088H87.7115L86.2235 6.104L85.3915 3.624H85.3275C85.3595 3.88 85.3915 4.16267 85.4235 4.472C85.4555 4.77067 85.4875 5.08 85.5195 5.4C85.5515 5.70933 85.5782 6.01867 85.5995 6.328C85.6208 6.63733 85.6315 6.92 85.6315 7.176V11H83.5195ZM103.147 11.192C102.443 11.192 101.798 11.0693 101.211 10.824C100.635 10.568 100.139 10.2053 99.723 9.736C99.307 9.26667 98.9817 8.696 98.747 8.024C98.523 7.352 98.411 6.58933 98.411 5.736C98.411 4.88267 98.523 4.12533 98.747 3.464C98.9817 2.792 99.307 2.232 99.723 1.784C100.139 1.32533 100.635 0.978666 101.211 0.743999C101.798 0.498666 102.443 0.375999 103.147 0.375999C103.851 0.375999 104.491 0.498666 105.067 0.743999C105.654 0.978666 106.155 1.32533 106.571 1.784C106.987 2.24267 107.307 2.808 107.531 3.48C107.766 4.14133 107.883 4.89333 107.883 5.736C107.883 6.58933 107.766 7.352 107.531 8.024C107.307 8.696 106.987 9.26667 106.571 9.736C106.155 10.2053 105.654 10.568 105.067 10.824C104.491 11.0693 103.851 11.192 103.147 11.192ZM103.147 9.16C103.862 9.16 104.427 8.856 104.843 8.248C105.259 7.62933 105.467 6.792 105.467 5.736C105.467 4.69067 105.259 3.87467 104.843 3.288C104.427 2.70133 103.862 2.408 103.147 2.408C102.432 2.408 101.867 2.70133 101.451 3.288C101.035 3.87467 100.827 4.69067 100.827 5.736C100.827 6.792 101.035 7.62933 101.451 8.248C101.867 8.856 102.432 9.16 103.147 9.16ZM117.285 11.192C116.581 11.192 115.935 11.0693 115.349 10.824C114.773 10.568 114.277 10.2053 113.861 9.736C113.445 9.26667 113.119 8.696 112.885 8.024C112.661 7.352 112.549 6.58933 112.549 5.736C112.549 4.88267 112.661 4.12533 112.885 3.464C113.119 2.792 113.445 2.232 113.861 1.784C114.277 1.32533 114.773 0.978666 115.349 0.743999C115.935 0.498666 116.581 0.375999 117.285 0.375999C117.989 0.375999 118.629 0.498666 119.205 0.743999C119.791 0.978666 120.293 1.32533 120.709 1.784C121.125 2.24267 121.445 2.808 121.669 3.48C121.903 4.14133 122.021 4.89333 122.021 5.736C122.021 6.58933 121.903 7.352 121.669 8.024C121.445 8.696 121.125 9.26667 120.709 9.736C120.293 10.2053 119.791 10.568 119.205 10.824C118.629 11.0693 117.989 11.192 117.285 11.192ZM117.285 9.16C117.999 9.16 118.565 8.856 118.981 8.248C119.397 7.62933 119.605 6.792 119.605 5.736C119.605 4.69067 119.397 3.87467 118.981 3.288C118.565 2.70133 117.999 2.408 117.285 2.408C116.57 2.408 116.005 2.70133 115.589 3.288C115.173 3.87467 114.965 4.69067 114.965 5.736C114.965 6.792 115.173 7.62933 115.589 8.248C116.005 8.856 116.57 9.16 117.285 9.16ZM127.182 11V0.568H129.598L132.318 5.752L133.342 8.056H133.406C133.353 7.50133 133.289 6.88267 133.214 6.2C133.15 5.51733 133.118 4.86667 133.118 4.248V0.568H135.358V11H132.942L130.222 5.8L129.198 3.528H129.134C129.187 4.104 129.246 4.72267 129.31 5.384C129.385 6.04533 129.422 6.68533 129.422 7.304V11H127.182Z" fill="#4A503D"/>
</svg>
